<svg width="28" height="23" viewBox="0 0 28 23" fill="none" xmlns="http://www.w3.org/2000/svg">
<g clip-path="url(#clip0)">
<path d="M8.81891 22.9065C19.2895 22.9065 25.015 14.1974 25.015 6.64546C25.015 6.39809 25.01 6.15184 24.999 5.9067C26.1104 5.09997 27.0765 4.09323 27.8384 2.9472C26.8185 3.40238 25.7209 3.70881 24.5695 3.84698C25.7448 3.13942 26.647 2.02013 27.0727 0.685798C25.9728 1.34043 24.7548 1.81623 23.458 2.07306C22.4192 0.962138 20.9404 0.267395 19.3028 0.267395C16.1593 0.267395 13.61 2.82687 13.61 5.98192C13.61 6.43041 13.66 6.86664 13.7576 7.28505C9.02647 7.04604 4.83136 4.77182 2.02407 1.31369C1.5352 2.15831 1.25331 3.13942 1.25331 4.18627C1.25331 6.16911 2.25824 7.91962 3.78646 8.94364C2.85255 8.91467 1.97524 8.65727 1.20836 8.22884C1.20752 8.25282 1.20752 8.27619 1.20752 8.30182C1.20752 11.0697 3.16968 13.3806 5.77442 13.9044C5.29609 14.0353 4.79279 14.1055 4.27339 14.1055C3.90715 14.1055 3.55034 14.0693 3.20352 14.0024C3.92824 16.2733 6.02968 17.9257 8.52122 17.972C6.57293 19.5052 4.11857 20.4184 1.45113 20.4184C0.992215 20.4184 0.538854 20.3922 0.0932617 20.3392C2.61255 21.9605 5.60406 22.9065 8.8192 22.9065" fill="#1F1F1F"/>
</g>
<defs>
<clipPath id="clip0">
<rect width="27.9314" height="22.8261" fill="white" transform="translate(0 0.17392)"/>
</clipPath>
</defs>
</svg>
