<svg width="27" height="161" viewBox="0 0 27 161" fill="none" xmlns="http://www.w3.org/2000/svg">
<rect x="10" y="36" width="4" height="125" fill="url(#paint0_linear)"/>
<path d="M26.9258 4.14857L24.7947 0.377143C24.627 0.077143 24.5606 0 24.1554 0H7.10678C6.78712 0 6.53849 0.205714 6.43194 0.48L0.0387206 19.3371C-0.0323152 19.5086 0.00320251 19.7143 0.0742383 19.8857L2.20531 23.6571C2.34738 23.8629 2.56049 24 2.84463 24H19.8932C20.2129 24 20.4615 23.7939 20.5681 23.52L26.9613 4.66286C27.0323 4.52571 26.9968 4.32 26.9258 4.14857ZM9.94821 4.49143H18.8277L17.7621 7.92H8.88267L9.94821 4.49143ZM19.396 22.6629H3.27085L1.92117 20.2629H17.7621C18.0818 20.2629 18.3304 20.0571 18.437 19.7829L24.333 2.43429L25.5406 4.56L19.396 22.6629Z" fill="#03BEC2"/>
<defs>
<linearGradient id="paint0_linear" x1="12" y1="36" x2="12" y2="161" gradientUnits="userSpaceOnUse">
<stop stop-color="#03BEC2" stop-opacity="0.52"/>
<stop offset="0.928177" stop-color="#03BEC2" stop-opacity="0"/>
</linearGradient>
</defs>
</svg>
