<svg width="26" height="25" viewBox="0 0 26 25" fill="none" xmlns="http://www.w3.org/2000/svg">
<g clip-path="url(#clip0)">
<path d="M26.0001 0H0.970703V25H26.0001V0Z" fill="#1F1F1F"/>
<path d="M6.9436 8.361C6.96449 8.15484 6.88578 7.95107 6.73165 7.81231L5.16166 5.92322V5.64104H10.0365L13.8045 13.895L17.1172 5.64104H21.7643V5.92322L20.422 7.20874C20.3063 7.29685 20.2489 7.44166 20.2728 7.58499V17.0304C20.2489 17.1737 20.3063 17.3186 20.422 17.4067L21.7329 18.6922V18.9744H15.139V18.6922L16.497 17.3753C16.6305 17.2421 16.6305 17.2029 16.6305 16.9991V9.36434L12.8546 18.943H12.3444L7.94839 9.36434V15.7841C7.91174 16.054 8.00149 16.3257 8.19174 16.5209L9.95799 18.6608V18.943H4.94971V18.6608L6.71595 16.5209C6.90482 16.3254 6.98933 16.0519 6.9436 15.7841V8.361Z" fill="white"/>
</g>
<defs>
<clipPath id="clip0">
<rect width="25.0294" height="25" fill="white" transform="translate(0.970703)"/>
</clipPath>
</defs>
</svg>
