<?xml version="1.0" encoding="UTF-8"?>
<svg width="710px" height="322px" viewBox="0 0 710 322" version="1.1" xmlns="http://www.w3.org/2000/svg" xmlns:xlink="http://www.w3.org/1999/xlink">
    <!-- Generator: Sketch 52.6 (67491) - http://www.bohemiancoding.com/sketch -->
    <title>Group 2</title>
    <desc>Created with Sketch.</desc>
    <defs>
        <linearGradient x1="50%" y1="245.47211%" x2="467.608173%" y2="13.0460349%" id="linearGradient-1">
            <stop stop-color="#4C22F7" offset="0%"></stop>
            <stop stop-color="#6D48ED" offset="100%"></stop>
        </linearGradient>
        <linearGradient x1="-101.48738%" y1="-167.594926%" x2="100%" y2="170.661122%" id="linearGradient-2">
            <stop stop-color="#FFFFFF" offset="0%"></stop>
            <stop stop-color="#744FFF" offset="100%"></stop>
        </linearGradient>
        <linearGradient x1="-165.866439%" y1="-24.0801411%" x2="71.1313101%" y2="-24.0801411%" id="linearGradient-3">
            <stop stop-color="#6622F7" offset="0%"></stop>
            <stop stop-color="#BFADFF" offset="100%"></stop>
        </linearGradient>
        <linearGradient x1="100%" y1="77.484424%" x2="0%" y2="50%" id="linearGradient-4">
            <stop stop-color="#4C22F7" offset="0%"></stop>
            <stop stop-color="#CFC8E8" offset="100%"></stop>
        </linearGradient>
        <linearGradient x1="-46.4468149%" y1="90.2469758%" x2="100%" y2="28.8075437%" id="linearGradient-5">
            <stop stop-color="#4C22F7" offset="0%"></stop>
            <stop stop-color="#6D48ED" offset="100%"></stop>
        </linearGradient>
        <linearGradient x1="-43.5208834%" y1="100%" x2="88.6080228%" y2="0%" id="linearGradient-6">
            <stop stop-color="#4C22F7" offset="0%"></stop>
            <stop stop-color="#CFC8E8" offset="100%"></stop>
        </linearGradient>
        <linearGradient x1="183.067909%" y1="133.808621%" x2="-40.0841346%" y2="16.7806808%" id="linearGradient-7">
            <stop stop-color="#FFFFFF" offset="0%"></stop>
            <stop stop-color="#5C34F2" offset="100%"></stop>
        </linearGradient>
        <linearGradient x1="-190.056577%" y1="0%" x2="71.1313101%" y2="-24.0801411%" id="linearGradient-8">
            <stop stop-color="#6622F7" offset="0%"></stop>
            <stop stop-color="#BFADFF" offset="100%"></stop>
        </linearGradient>
    </defs>
    <g id="Page-1" stroke="none" stroke-width="1" fill="none" fill-rule="evenodd">
        <g id="light" transform="translate(-172.000000, -145.000000)">
            <g id="Group-2" transform="translate(172.000000, 145.000000)">
                <g id="Group">
                    <g id="r-2">
                        <g id="r">
                            <g id="rect" transform="translate(131.500000, 217.220046) scale(1, -1) translate(-131.500000, -217.220046) translate(0.000000, 123.720046)">
                                <polygon id="back-left" stroke="#FFFFFF" fill="#D8D8D8" opacity="0.183105469" transform="translate(22.188970, 38.124902) scale(-1, 1) translate(-22.188970, -38.124902) " points="0.821813698 0 43.556126 22.1370398 43.556126 76.2498038 0.821813698 54.112764"></polygon>
                                <polygon id="back-right" stroke="#FFFFFF" fill="#D8D8D8" opacity="0.183105469" points="43.556126 0 86.2904383 22.1370398 86.2904383 76.2498038 43.556126 54.112764"></polygon>
                                <polygon id="front-left" fill="url(#linearGradient-1)" points="0 22.1370398 42.7343123 44.2740796 42.7343123 98.3868436 0 76.2498038"></polygon>
                                <polygon id="front-right" fill="url(#linearGradient-2)" transform="translate(65.745096, 60.261942) scale(-1, 1) translate(-65.745096, -60.261942) " points="44.3779397 22.1370398 87.112252 44.2740796 87.112252 98.3868436 44.3779397 76.2498038"></polygon>
                                <polygon id="top" fill="url(#linearGradient-3)" points="43.556126 0.392696957 85.572274 21.0122937 43.556126 42.7612973 1.51289133 21.0122937"></polygon>
                                <polygon id="top" fill="url(#linearGradient-1)" points="88.8866154 144.300704 130.902763 164.920301 88.8866154 186.669304 46.8433808 164.920301"></polygon>
                                <polygon id="top" fill="url(#linearGradient-1)" points="132.442741 122.163664 174.458889 142.783261 132.442741 164.532264 89.8304971 143.480814"></polygon>
                                <polygon id="top" fill="url(#linearGradient-4)" points="220.656978 121.248093 262.980383 141.841033 220.246071 163.978073 178.333572 142.459153"></polygon>
                            </g>
                            <g id="rect" transform="translate(44.000000, 194.330462) scale(1, -1) translate(-44.000000, -194.330462) translate(0.000000, 155.830462)">
                                <polygon id="front-left" fill="url(#linearGradient-1)" points="0 0 42.7343123 22.1370398 42.7343123 76.2498038 0 54.112764"></polygon>
                                <polygon id="front-right" fill="url(#linearGradient-2)" transform="translate(65.745096, 38.124902) scale(-1, 1) translate(-65.745096, -38.124902) " points="44.3779397 0 87.112252 22.1370398 87.112252 76.2498038 44.3779397 54.112764"></polygon>
                            </g>
                            <g id="rect" transform="translate(177.133819, 94.303837) scale(1, -1) translate(-177.133819, -94.303837) translate(133.133819, 55.803837)">
                                <polygon id="front-left" fill="url(#linearGradient-1)" points="0 0 42.7343123 22.1370398 42.7343123 76.2498038 0 54.112764"></polygon>
                                <polygon id="front-right" fill="url(#linearGradient-2)" transform="translate(65.745096, 38.124902) scale(-1, 1) translate(-65.745096, -38.124902) " points="44.3779397 0 87.112252 22.1370398 87.112252 76.2498038 44.3779397 54.112764"></polygon>
                            </g>
                            <g id="rect" transform="translate(177.133819, 38.551293) scale(1, -1) translate(-177.133819, -38.551293) translate(133.133819, 0.051293)">
                                <polygon id="front-left" fill="url(#linearGradient-1)" points="0 0 42.7343123 22.1370398 42.7343123 76.2498038 0 54.112764"></polygon>
                                <polygon id="front-right" fill="url(#linearGradient-2)" transform="translate(65.745096, 38.124902) scale(-1, 1) translate(-65.745096, -38.124902) " points="44.3779397 0 87.112252 22.1370398 87.112252 76.2498038 44.3779397 54.112764"></polygon>
                            </g>
                            <g id="rect" transform="translate(44.000000, 138.577917) scale(1, -1) translate(-44.000000, -138.577917) translate(0.000000, 100.077917)">
                                <polygon id="front-left" fill="url(#linearGradient-1)" points="0 0 42.7343123 22.1370398 42.7343123 76.2498038 0 54.112764"></polygon>
                                <polygon id="front-right" fill="url(#linearGradient-2)" transform="translate(65.745096, 38.124902) scale(-1, 1) translate(-65.745096, -38.124902) " points="44.3779397 0 87.112252 22.1370398 87.112252 76.2498038 44.3779397 54.112764"></polygon>
                            </g>
                            <g id="rect" transform="translate(44.000000, 82.825372) scale(1, -1) translate(-44.000000, -82.825372) translate(0.000000, 44.325372)">
                                <polygon id="front-left" fill="url(#linearGradient-5)" points="0 0 42.7343123 22.1370398 42.7343123 76.2498038 0 54.112764"></polygon>
                                <polygon id="front-right" fill="url(#linearGradient-6)" transform="translate(65.745096, 38.124902) scale(-1, 1) translate(-65.745096, -38.124902) " points="44.3779397 0 87.112252 22.1370398 87.112252 76.2498038 44.3779397 54.112764"></polygon>
                            </g>
                            <g id="rect" transform="translate(44.000000, 82.825372) scale(1, -1) translate(-44.000000, -82.825372) translate(0.000000, 44.325372)">
                                <polygon id="front-left" fill="url(#linearGradient-1)" points="0 0 42.7343123 22.1370398 42.7343123 76.2498038 0 54.112764"></polygon>
                                <polygon id="front-right" fill="url(#linearGradient-2)" transform="translate(65.745096, 38.124902) scale(-1, 1) translate(-65.745096, -38.124902) " points="44.3779397 0 87.112252 22.1370398 87.112252 76.2498038 44.3779397 54.112764"></polygon>
                            </g>
                            <g id="rect" transform="translate(110.255879, 105.782302) scale(1, -1) translate(-110.255879, -105.782302) translate(88.755879, 67.282302)" fill="url(#linearGradient-2)">
                                <polygon id="front-right" transform="translate(21.367156, 38.124902) scale(-1, 1) translate(-21.367156, -38.124902) " points="0 0 42.7343123 22.1370398 42.7343123 76.2498038 0 54.112764"></polygon>
                            </g>
                            <g id="rect" transform="translate(221.133819, 157.268598) scale(1, -1) translate(-221.133819, -157.268598) translate(133.133819, 67.768598)">
                                <polygon id="front-right" fill="url(#linearGradient-2)" transform="translate(21.367156, 117.654267) scale(-1, 1) translate(-21.367156, -117.654267) " points="0 79.5293652 42.7343123 101.666405 42.7343123 155.779169 0 133.642129"></polygon>
                                <polygon id="front-left" fill="url(#linearGradient-1)" points="44.3779397 79.5293652 87.112252 101.666405 87.112252 155.779169 44.3779397 133.642129"></polygon>
                                <polygon id="front-left" fill="url(#linearGradient-1)" points="88.7558794 102.486295 131.490192 124.623335 131.490192 178.736099 88.7558794 156.599059"></polygon>
                                <polygon id="front-right" fill="url(#linearGradient-2)" transform="translate(154.500975, 140.611197) scale(-1, 1) translate(-154.500975, -140.611197) " points="133.133819 102.486295 175.868131 124.623335 175.868131 178.736099 133.133819 156.599059"></polygon>
                                <polygon id="front-left" fill="url(#linearGradient-1)" points="88.7558794 46.7337507 131.490192 68.4300194 131.490192 122.983554 88.7558794 100.846515"></polygon>
                                <polygon id="front-right" fill="url(#linearGradient-2)" transform="translate(154.500975, 84.858653) scale(-1, 1) translate(-154.500975, -84.858653) " points="133.133819 46.7337507 175.868131 68.8707905 175.868131 122.983554 133.133819 100.846515"></polygon>
                                <polygon id="front-left" fill="url(#linearGradient-1)" points="0 2.65543593 42.5700498 23.7760199 42.5700498 77.7166389 0 56.992789"></polygon>
                                <polygon id="front-right" fill="url(#linearGradient-7)" transform="translate(65.745096, 38.858319) scale(-1, 1) translate(-65.745096, -38.858319) " points="44.3779397 -2.27373675e-13 87.112252 22.5650002 87.112252 77.7166389 44.3779397 55.7525447"></polygon>
                            </g>
                            <g id="Group-3" transform="translate(221.889698, 179.537588)">
                                <polygon id="front-left" fill="url(#linearGradient-1)" transform="translate(21.367156, 38.092274) scale(-1, 1) translate(-21.367156, -38.092274) " points="0 0.708596652 42.7343123 22.1370398 42.7343123 75.4759522 0 54.112764"></polygon>
                                <polygon id="front-right" fill="url(#linearGradient-2)" transform="translate(65.745096, 38.124902) scale(-1, -1) translate(-65.745096, -38.124902) " points="44.3779397 0 87.112252 22.1370398 87.112252 76.2498038 44.3779397 54.112764"></polygon>
                                <polygon id="top" fill="url(#linearGradient-8)" transform="translate(43.508775, 76.936845) scale(1, -1) translate(-43.508775, -76.936845) " points="43.686862 55.7525447 86.1957371 75.9841053 43.2624119 98.1211451 0.821813698 76.9368449"></polygon>
                            </g>
                            <g id="Group-3" transform="translate(133.133819, 223.811668)">
                                <polygon id="front-left" fill="url(#linearGradient-1)" transform="translate(21.367156, 38.092274) scale(-1, 1) translate(-21.367156, -38.092274) " points="0 0.708596652 42.7343123 22.1370398 42.7343123 75.4759522 0 54.112764"></polygon>
                                <polygon id="top" fill="url(#linearGradient-8)" transform="translate(43.245137, 76.936845) scale(1, -1) translate(-43.245137, -76.936845) " points="43.686862 55.7525447 85.6684601 76.9368449 43.2624119 98.1211451 0.821813698 76.9368449"></polygon>
                            </g>
                            <g id="Group-3" transform="translate(177.511759, 201.674628)">
                                <polygon id="front-left" fill="url(#linearGradient-1)" transform="translate(21.367156, 38.092274) scale(-1, 1) translate(-21.367156, -38.092274) " points="0 0.708596652 42.7343123 22.1370398 42.7343123 75.4759522 0 54.112764"></polygon>
                                <polygon id="top" fill="url(#linearGradient-8)" transform="translate(43.556126, 77.069694) scale(1, -1) translate(-43.556126, -77.069694) " points="43.5696315 55.7525447 86.2904383 77.0696941 43.1451814 98.3868436 0.821813698 77.0661528"></polygon>
                            </g>
                        </g>
                    </g>
                </g>
                <path d="M454.045,192 L434.614,192 C432.582,191.365 431.058,189.46 429.28,181.205 C427.756,174.601 425.089,163.933 422.803,160.25 C419.374,154.789 414.167,152.757 402.483,152.757 L381.655,152.757 L381.655,192 L361.589,192 L361.589,91.543 L415.437,91.543 C437.662,91.543 446.679,103.227 446.679,117.832 C446.679,131.548 440.71,140.057 427.756,142.47 L427.756,142.978 C437.408,145.137 443.123,151.614 445.028,160.758 C446.806,169.14 450.108,181.586 450.997,185.523 C451.632,187.809 452.267,190.984 454.045,191.111 L454.045,192 Z M426.74,122.404 C426.74,120.88 426.359,119.737 426.105,118.467 C424.708,112.752 420.644,110.212 410.992,110.212 L381.655,110.212 L381.655,134.723 C382.29,134.723 409.722,134.723 411.5,134.596 C420.771,134.342 424.708,132.31 426.105,126.341 C426.486,125.198 426.74,123.674 426.74,122.404 Z M490.748,192 L470.682,192 L470.682,91.543 L490.748,91.543 L490.748,192 Z M607.334,131.802 L586.633,131.802 C586.506,129.389 586.76,125.833 586.252,124.055 C584.474,116.308 577.616,109.069 559.709,109.069 C544.723,109.069 534.309,114.911 533.039,127.23 C532.785,130.278 532.658,137.517 532.658,141.835 C532.658,144.756 532.785,153.138 533.039,155.932 C534.182,168.378 544.723,174.347 560.471,174.347 C576.473,174.347 584.22,167.997 585.871,158.98 C586.252,157.329 586.125,152.757 586.125,150.725 L607.207,150.725 C607.207,153.138 607.207,157.075 607.08,159.361 C605.81,177.395 591.713,193.397 560.979,193.397 C527.324,193.397 512.846,176.633 512.338,155.043 C512.338,151.995 511.957,146.661 511.957,141.708 C511.957,136.628 512.211,130.659 512.211,128.5 C512.592,107.418 528.467,90.019 560.979,90.019 C590.57,90.019 605.048,105.259 607.08,123.547 C607.334,125.833 607.334,129.135 607.334,131.802 Z M707.41,192 L627.4,192 L627.4,91.543 L707.029,91.543 L707.029,110.339 L647.466,110.339 L647.466,132.437 L704.489,132.437 L704.489,150.852 L647.466,150.852 L647.466,173.204 L707.41,173.204 L707.41,192 Z M392.874,242.425 C392.874,243.55 392.829,244.72 392.784,245.26 C392.514,250.66 387.879,253 382.164,253 L361.644,253 L361.644,217.405 L381.264,217.405 C387.654,217.405 390.444,220.33 390.669,224.245 C390.714,224.92 390.804,225.91 390.804,226.9 C390.804,227.845 390.714,228.745 390.669,229.33 C390.579,231.895 389.004,233.605 386.934,234.055 C390.444,234.73 392.469,236.665 392.784,239.86 C392.829,240.4 392.874,241.39 392.874,242.425 Z M383.784,227.98 C383.784,227.26 383.739,226.36 383.559,225.91 C383.019,224.56 382.119,223.885 379.644,223.885 L368.529,223.885 L368.529,231.94 L379.644,231.94 C382.074,231.94 383.109,231.355 383.559,229.96 C383.649,229.6 383.784,228.61 383.784,227.98 Z M385.629,242.065 C385.629,241.39 385.584,240.67 385.449,240.175 C384.999,238.645 384.009,237.79 381.264,237.79 L368.529,237.79 L368.529,246.475 L381.264,246.475 C384.144,246.475 385.179,245.485 385.494,244 C385.584,243.505 385.629,242.785 385.629,242.065 Z M425.814,253 L399.894,253 L399.894,217.405 L406.959,217.405 L406.959,246.34 L425.814,246.34 L425.814,253 Z M464.289,235.18 C464.289,236.62 464.244,237.88 464.199,239.59 C464.109,247.6 458.619,253.495 446.964,253.495 C435.444,253.495 429.909,248.23 429.774,239.59 C429.774,238.78 429.684,236.89 429.684,235.18 C429.684,233.47 429.774,231.445 429.774,230.77 C429.774,222.76 435.264,216.865 446.964,216.865 C459.339,216.865 464.109,222.67 464.199,230.77 C464.244,232.39 464.289,233.335 464.289,235.18 Z M456.954,235.135 C456.954,233.875 456.909,231.085 456.864,230.32 C456.639,226.045 453.039,223.435 446.964,223.435 C440.889,223.435 437.289,225.955 437.064,230.275 C437.064,231.13 436.929,233.47 436.929,235.225 C436.929,236.53 437.019,239.23 437.064,240.085 C437.379,244.36 440.439,246.925 446.964,246.925 C453.939,246.925 456.684,244.09 456.864,239.95 C456.909,239.14 456.954,236.395 456.954,235.135 Z M503.529,231.67 L496.194,231.67 C496.149,230.815 496.239,229.555 496.059,228.925 C495.429,226.18 492.999,223.615 486.654,223.615 C481.344,223.615 477.654,225.685 477.204,230.05 C477.114,231.13 477.069,233.695 477.069,235.225 C477.069,236.26 477.114,239.23 477.204,240.22 C477.609,244.63 481.344,246.745 486.924,246.745 C492.594,246.745 495.339,244.495 495.924,241.3 C496.059,240.715 496.014,239.095 496.014,238.375 L503.484,238.375 C503.484,239.23 503.484,240.625 503.439,241.435 C502.989,247.825 497.994,253.495 487.104,253.495 C475.179,253.495 470.049,247.555 469.869,239.905 C469.869,238.825 469.734,236.935 469.734,235.18 C469.734,233.38 469.824,231.265 469.824,230.5 C469.959,223.03 475.584,216.865 487.104,216.865 C497.589,216.865 502.719,222.265 503.439,228.745 C503.529,229.555 503.529,230.725 503.529,231.67 Z M542.364,253 L533.454,253 L519.954,238.105 L517.659,240.31 L517.659,253 L510.639,253 L510.639,217.405 L517.659,217.405 L517.659,232.255 L532.599,217.405 L541.239,217.405 L524.949,233.605 L542.364,253 Z M578.274,231.67 L570.939,231.67 C570.894,230.815 570.984,229.555 570.804,228.925 C570.174,226.18 567.744,223.615 561.399,223.615 C556.089,223.615 552.399,225.685 551.949,230.05 C551.859,231.13 551.814,233.695 551.814,235.225 C551.814,236.26 551.859,239.23 551.949,240.22 C552.354,244.63 556.089,246.745 561.669,246.745 C567.339,246.745 570.084,244.495 570.669,241.3 C570.804,240.715 570.759,239.095 570.759,238.375 L578.229,238.375 C578.229,239.23 578.229,240.625 578.184,241.435 C577.734,247.825 572.739,253.495 561.849,253.495 C549.924,253.495 544.794,247.555 544.614,239.905 C544.614,238.825 544.479,236.935 544.479,235.18 C544.479,233.38 544.569,231.265 544.569,230.5 C544.704,223.03 550.329,216.865 561.849,216.865 C572.334,216.865 577.464,222.265 578.184,228.745 C578.274,229.555 578.274,230.725 578.274,231.67 Z M615.714,253 L608.649,253 L608.649,238.555 L592.494,238.555 L592.494,253 L585.384,253 L585.384,217.405 L592.494,217.405 L592.494,231.76 L608.649,231.76 L608.649,217.405 L615.714,217.405 L615.714,253 Z M656.709,253 L648.924,253 L646.674,247.78 L630.114,247.78 L627.909,253 L620.574,253 L635.199,217.405 L642.174,217.405 L656.709,253 Z M644.334,241.525 L638.349,226.945 L632.499,241.525 L644.334,241.525 Z M668.634,253 L661.524,253 L661.524,217.405 L668.634,217.405 L668.634,253 Z M709.359,253 L702.654,253 L685.239,229.15 L685.239,253 L678.264,253 L678.264,217.405 L685.284,217.405 L702.429,241.12 L702.429,217.405 L709.359,217.405 L709.359,253 Z" id="RICE-BLOCKCHAIN" fill="#5B34F2"></path>
            </g>
        </g>
    </g>
</svg>